<?xml version="1.0" ?><!DOCTYPE svg  PUBLIC '-//W3C//DTD SVG 1.1//EN'  'http://www.w3.org/Graphics/SVG/1.1/DTD/svg11.dtd'><svg height="42px" style="fill-rule:evenodd;clip-rule:evenodd;stroke-linejoin:round;stroke-miterlimit:2;" version="1.1" width="42px" xml:space="preserve" xmlns="http://www.w3.org/2000/svg" xmlns:serif="http://www.serif.com/" xmlns:xlink="http://www.w3.org/1999/xlink"><path d="M21,11c-5.519,0 -10,4.481 -10,10c0,5.519 4.481,10 10,10c5.519,-0 10,-4.481 10,-10c0,-5.519 -4.481,-10 -10,-10Zm0,2c4.415,0 8,3.585 8,8c0,4.415 -3.585,8 -8,8c-4.415,-0 -8,-3.585 -8,-8c0,-4.415 3.585,-8 8,-8Z"/><path d="M20,33l0,3c0,0.552 0.448,1 1,1c0.552,-0 1,-0.448 1,-1l0,-3c0,-0.552 -0.448,-1 -1,-1c-0.552,-0 -1,0.448 -1,1Zm6.134,-1.108l1.5,2.598c0.276,0.478 0.888,0.642 1.366,0.366c0.478,-0.276 0.642,-0.888 0.366,-1.366l-1.5,-2.598c-0.276,-0.478 -0.888,-0.642 -1.366,-0.366c-0.478,0.276 -0.642,0.888 -0.366,1.366Zm-12,-1l-1.5,2.598c-0.276,0.478 -0.112,1.09 0.366,1.366c0.478,0.276 1.09,0.112 1.366,-0.366l1.5,-2.598c0.276,-0.478 0.112,-1.09 -0.366,-1.366c-0.478,-0.276 -1.09,-0.112 -1.366,0.366Zm-4.026,-4.758l-2.598,1.5c-0.478,0.276 -0.642,0.888 -0.366,1.366c0.276,0.478 0.888,0.642 1.366,0.366l2.598,-1.5c0.478,-0.276 0.642,-0.888 0.366,-1.366c-0.276,-0.478 -0.888,-0.642 -1.366,-0.366Zm20.784,1.732l2.598,1.5c0.478,0.276 1.09,0.112 1.366,-0.366c0.276,-0.478 0.112,-1.09 -0.366,-1.366l-2.598,-1.5c-0.478,-0.276 -1.09,-0.112 -1.366,0.366c-0.276,0.478 -0.112,1.09 0.366,1.366Zm-21.892,-7.866l-3,0c-0.552,0 -1,0.448 -1,1c0,0.552 0.448,1 1,1l3,0c0.552,0 1,-0.448 1,-1c0,-0.552 -0.448,-1 -1,-1Zm24,2l3,0c0.552,0 1,-0.448 1,-1c0,-0.552 -0.448,-1 -1,-1l-3,0c-0.552,0 -1,0.448 -1,1c0,0.552 0.448,1 1,1Zm-1.108,-6.134l2.598,-1.5c0.478,-0.276 0.642,-0.888 0.366,-1.366c-0.276,-0.478 -0.888,-0.642 -1.366,-0.366l-2.598,1.5c-0.478,0.276 -0.642,0.888 -0.366,1.366c0.276,0.478 0.888,0.642 1.366,0.366Zm-20.784,-1.732l-2.598,-1.5c-0.478,-0.276 -1.09,-0.112 -1.366,0.366c-0.276,0.478 -0.112,1.09 0.366,1.366l2.598,1.5c0.478,0.276 1.09,0.112 1.366,-0.366c0.276,-0.478 0.112,-1.09 -0.366,-1.366Zm4.758,-4.026l-1.5,-2.598c-0.276,-0.478 -0.888,-0.642 -1.366,-0.366c-0.478,0.276 -0.642,0.888 -0.366,1.366l1.5,2.598c0.276,0.478 0.888,0.642 1.366,0.366c0.478,-0.276 0.642,-0.888 0.366,-1.366Zm12,1l1.5,-2.598c0.276,-0.478 0.112,-1.09 -0.366,-1.366c-0.478,-0.276 -1.09,-0.112 -1.366,0.366l-1.5,2.598c-0.276,0.478 -0.112,1.09 0.366,1.366c0.478,0.276 1.09,0.112 1.366,-0.366Zm-5.866,-2.108l-0,-3c0,-0.552 -0.448,-1 -1,-1c-0.552,-0 -1,0.448 -1,1l-0,3c0,0.552 0.448,1 1,1c0.552,-0 1,-0.448 1,-1Z"/></svg>